# xmcd CD database file
#
# Track frame offsets:
#	150
#	16541
#	31110
#	48857
#	64934
#	86607
#	103003
#	123745
#	144252
#	165263
#	182866
#	201208
#	216746
#	238480
#
# Disc length: 3403 seconds
#
# Revision: 0
# Processed by: cddbd v1.5.2PL0 Copyright (c) Steve Scherf et al.
# Submitted via: CDex 1.77
#
DISCID=c30d490e
DTITLE=Chris Jagger - Chris Jagger's Acoustic Roots
DYEAR=2014
DGENRE=Blues
TTITLE0=Pretty Little Thing
TTITLE1=Right Or Wrong
TTITLE2=Angel By My Side
TTITLE3=Bayou Teche
TTITLE4=The Foot
TTITLE5=Bucket's Gotta Hole In It
TTITLE6=Cajun Moon
TTITLE7=Hobo Blues
TTITLE8=Lazy Days
TTITLE9=Luz
TTITLE10=Allons Joujette
TTITLE11=Baby Is Blue
TTITLE12=Why Did You Wander
TTITLE13=Cancelled Date
EXTD=YEAR: 2014
EXTT0=
EXTT1=
EXTT2=
EXTT3=
EXTT4=
EXTT5=
EXTT6=
EXTT7=
EXTT8=
EXTT9=
EXTT10=
EXTT11=
EXTT12=
EXTT13=
PLAYORDER=
